inDegrees=no
num_controls=7
num_derivatives=13
num_iterations=143
num_multipliers=7
num_parameters=0
num_slacks=7
num_states=26
objective=0.516715
objective_accelerations=0.039735
objective_balance=0.002200
objective_effort=0.043734
objective_height=0.419421
objective_ligament=0.011625
solver_duration=1891.845497
status=Solve_Succeeded
success=true
DataType=double
version=3
OpenSimVersion=4.5
endheader
time	/jointset/ground_pelvis/pelvis_tilt/value	/jointset/ground_pelvis/pelvis_tx/value	/jointset/ground_pelvis/pelvis_ty/value	/jointset/hip_l/hip_flexion_l/value	/jointset/hip_l/hip_adduction_l/value	/jointset/hip_l/hip_rotation_l/value	/jointset/back/lumbar_extension/value	/jointset/patellofemoral_l/patellar_flexion_l/value	/jointset/knee_l/knee_flexion_l/value	/jointset/knee_l/knee_adduction_l/value	/jointset/knee_l/knee_rotation_l/value	/jointset/ankle_l/ankle_angle_l/value	/jointset/subtalar_l/subtalar_angle_l/value	/jointset/ground_pelvis/pelvis_tilt/speed	/jointset/ground_pelvis/pelvis_tx/speed	/jointset/ground_pelvis/pelvis_ty/speed	/jointset/hip_l/hip_flexion_l/speed	/jointset/hip_l/hip_adduction_l/speed	/jointset/hip_l/hip_rotation_l/speed	/jointset/back/lumbar_extension/speed	/jointset/patellofemoral_l/patellar_flexion_l/speed	/jointset/knee_l/knee_flexion_l/speed	/jointset/knee_l/knee_adduction_l/speed	/jointset/knee_l/knee_rotation_l/speed	/jointset/ankle_l/ankle_angle_l/speed	/jointset/subtalar_l/subtalar_angle_l/speed	/forceset/tau_hip_flexion_l	/forceset/tau_hip_adduction_l	/forceset/tau_hip_rotation_l	/forceset/tau_knee_flexion_l	/forceset/tau_ankle_angle_l	/forceset/tau_subtalar_angle_l	/forceset/tau_lumbar_extension	lambda_cid13_p0	lambda_cid13_p1	lambda_cid13_p2	lambda_cid13_p3	lambda_cid13_p4	lambda_cid13_p5	lambda_cid14_p0	/jointset/ground_pelvis/pelvis_tilt/accel	/jointset/ground_pelvis/pelvis_tx/accel	/jointset/ground_pelvis/pelvis_ty/accel	/jointset/hip_l/hip_flexion_l/accel	/jointset/hip_l/hip_adduction_l/accel	/jointset/hip_l/hip_rotation_l/accel	/jointset/back/lumbar_extension/accel	/jointset/patellofemoral_l/patellar_flexion_l/accel	/jointset/knee_l/knee_flexion_l/accel	/jointset/knee_l/knee_adduction_l/accel	/jointset/knee_l/knee_rotation_l/accel	/jointset/ankle_l/ankle_angle_l/accel	/jointset/subtalar_l/subtalar_angle_l/accel	gamma_cid13_p0	gamma_cid13_p1	gamma_cid13_p2	gamma_cid13_p3	gamma_cid13_p4	gamma_cid13_p5	gamma_cid14_p0
0.5	-0.1195136135597041	-0.05577744174876308	0.8245451551479644	0.8904375303337567	-0.3238145693936144	-0.1229352330586938	-0.7788835200458789	0.7882104716141917	0.7882104716141946	-0.1090056718082652	-0.1745326037325199	0.07143513636308554	-0.006894913539408517	-0.2035021898060059	-0.2060114547048656	-0.3391430567499167	1.489958109021346	-0.04089477450984847	0.4565543177111076	-0.8395363003880126	1.435175267095766	1.435175267095707	0.1316562627669071	-2.354369474291396e-05	0.2398231188427503	0.03144800382794517	-0.2814314814081829	0.01574004451606607	-0.003261993637381933	-0.210631905235435	0.1124059821227179	0.05403723965539444	0.3296225503715436	-8.284224712585267	-23.54923826962385	5.049281386796749	-9.297138684183707	-703.1762960441504	-81.20274300879404	-14.90556316141175	0.283202072449294	0.6446864348102177	-0.1177627098667197	-1.422604274133848	0.22013544293652	-0.3442303298868166	1.692776215848202	-1.096716490699038	-1.096716490699059	-0.2865327358539239	0.02104167271468285	-0.006177364918322765	0.2397002373161035	-5.597715955899851e-08	-4.752579276124368e-07	8.271928998283856e-08	-5.239639552986954e-08	-8.268481060577618e-08	-5.252009310720802e-08	-7.925566362749148e-08
0.51	-0.1215342492030702	-0.05780519971684959	0.8211485893357272	0.9052637639978286	-0.3242128922976078	-0.1183880969005398	-0.7871932955624983	0.802505053090553	0.8025050530905671	-0.1077039080970948	-0.1745326597434273	0.07383235349147597	-0.006569065411325752	-0.2005989501454075	-0.1995287444433017	-0.3400923248823144	1.475075824118397	-0.03876884789653555	0.4527990737963985	-0.8223270815200814	1.423518287819183	1.423518287819101	0.128700707872784	3.095147496704534e-06	0.2395702021954778	0.0337086313106782	-0.287788634365262	0.01601156731020837	-0.003482971817331316	-0.2133124908449576	0.1128423181679151	0.05445222471521272	0.3357779089274507	-8.368022646484004	-23.67242655285806	5.020527238754675	-9.378171181949462	-707.1449127596776	-81.15383597264575	-14.38041813720185	0.2977781081726059	0.6517642126692342	-0.07185863095999058	-1.552966448144372	0.2090008823390342	-0.4023194946706459	1.748752934626754	-1.233583758595539	-1.23358375859893	-0.2995043687962698	-0.007875709540857628	-0.04237951213541828	0.2173470697088313	-7.690869694870784e-08	-3.587689490244438e-07	2.598044393823084e-07	-1.976551389828217e-08	-9.560802537654853e-08	-4.119549192750277e-08	-8.666625896666656e-08
0.52	-0.1235250738107694	-0.0597677904041525	0.8177448608889591	0.9199347896429169	-0.3245899200131068	-0.1138807427960142	-0.795328227247966	0.8166763857516565	0.8166763857516823	-0.1064315874353846	-0.1745327195058176	0.07622553531389284	-0.006220990395224293	-0.1975399826725087	-0.1929779985481444	-0.3405755836560604	1.458916505224688	-0.03663573681080697	0.4485979069853812	-0.8045675341577034	1.410525504044297	1.410525504044193	0.1257676528744698	-2.429399104198149e-05	0.2390160576480568	0.03589338143168831	-0.2941457873223415	0.01628309010434829	-0.003703949997272732	-0.2159930764544808	0.1132786542131113	0.05486720977502838	0.3419332674833583	-8.455049983634122	-23.79604366529503	4.992977285784457	-9.485274437832022	-711.1864729541401	-81.12896384865317	-13.85233627408377	0.3143476349093553	0.6582935615288902	-0.02456083813637102	-1.678011072286094	0.22157233741965	-0.4334149091484765	1.802841914737549	-1.363877390359525	-1.363877390359533	-0.2820327566921273	0.01023607655902137	-0.06642294494804643	0.2245247649715184	-1.08311274038185e-07	-2.256160829228266e-07	5.056559942396715e-07	2.394030835170637e-08	-1.181687793745597e-07	-2.639213498942488e-08	-1.007294870269733e-07
0.53	-0.125484501873367	-0.06166463677217499	0.8143386309289348	0.934437921526601	-0.3249457622885958	-0.1094164766148843	-0.8032829763040208	0.8307111635254039	0.8307111635254064	-0.1051894704185987	-0.1745326381276405	0.07861158022124437	-0.005851694597298107	-0.1943179723691154	-0.1863903571062071	-0.3405922343851676	1.441508051236723	-0.03453558458703213	0.4441865366463851	-0.7863055117168288	1.396214967150499	1.396214967150441	0.1226553173728573	3.085941766313446e-05	0.2381370338582312	0.03794637819949073	-0.3004887385232864	0.01670530207196385	-0.00390305863820575	-0.2182976972947036	0.113013195982913	0.05516231291219727	0.3479518937057974	-8.767640471639298	-23.82829788472712	4.951085486498028	-9.300842288870697	-715.0851083496095	-80.94558003688044	-13.32203874377296	0.3302632089286384	0.6591465074369277	0.02148290047714941	-1.8025520310455	0.2037392916862961	-0.4554185248620035	1.849397209217343	-1.496882748841601	-1.496882748834653	-0.3259071914755379	0.001826200221897085	-0.1070285631331458	0.1927278902621049	-1.222701391698785e-07	-1.295220189747451e-07	6.388851219843106e-07	4.983084126422808e-08	-1.253790011240315e-07	-1.161197113326658e-08	-1.049808633874107e-07
0.54	-0.127410882736756	-0.06349557731139595	0.8109345744797742	0.9487609109766065	-0.3252807025164817	-0.1049984082228614	-0.8110528021755757	0.8445963877482228	0.8445963877482026	-0.1039784914057436	-0.1745322709699384	0.0809871575972709	-0.005462460680178419	-0.1909305428307489	-0.1797968327878363	-0.340140881483273	1.422888018489007	-0.03245532729006056	0.4393583491639151	-0.767582897257757	1.380614793858637	1.380614793858625	0.1195400520880554	3.286191419387101e-05	0.2369225513830723	0.03988100527039317	-0.306831689724231	0.01712751403957806	-0.004102167279134674	-0.2206023181349266	0.112747737752714	0.05545741604936435	0.3539705199282372	-9.08391448139637	-23.86079023147325	4.910240865970448	-9.144797642818702	-719.0648234882602	-80.80008834785325	-12.7903862169418	0.3474314819039876	0.6594701368156235	0.06903988806395357	-1.920326824236327	0.2175933520589939	-0.5167783378432818	1.894960318376988	-1.621804669972157	-1.621804669972169	-0.282618713330005	-0.0003941058758566315	-0.1335146820147219	0.2008508255915215	-1.169295783057262e-07	-7.442918294121397e-08	6.47510713348913e-07	5.601084129274371e-08	-1.156056552793744e-07	3.142532291831759e-09	-9.837657403735407e-08
